inDegrees=no
num_controls=7
num_derivatives=13
num_iterations=124
num_multipliers=7
num_parameters=0
num_slacks=7
num_states=26
objective=6.055663
objective_accelerations=0.513962
objective_balance=0.026243
objective_effort=0.530187
objective_height=4.869421
objective_ligament=0.115850
solver_duration=1038.511040
status=Solve_Succeeded
success=true
DataType=double
version=3
OpenSimVersion=4.4-2022-07-23-0e9fedc
endheader
time	/jointset/ground_pelvis/pelvis_tilt/value	/jointset/ground_pelvis/pelvis_tx/value	/jointset/ground_pelvis/pelvis_ty/value	/jointset/hip_r/hip_flexion_r/value	/jointset/hip_r/hip_adduction_r/value	/jointset/hip_r/hip_rotation_r/value	/jointset/back/lumbar_extension/value	/jointset/patellofemoral_r/patellar_flexion_r/value	/jointset/knee_r/knee_flexion_r/value	/jointset/knee_r/knee_adduction_r/value	/jointset/knee_r/knee_rotation_r/value	/jointset/ankle_r/ankle_angle_r/value	/jointset/subtalar_r/subtalar_angle_r/value	/jointset/ground_pelvis/pelvis_tilt/speed	/jointset/ground_pelvis/pelvis_tx/speed	/jointset/ground_pelvis/pelvis_ty/speed	/jointset/hip_r/hip_flexion_r/speed	/jointset/hip_r/hip_adduction_r/speed	/jointset/hip_r/hip_rotation_r/speed	/jointset/back/lumbar_extension/speed	/jointset/patellofemoral_r/patellar_flexion_r/speed	/jointset/knee_r/knee_flexion_r/speed	/jointset/knee_r/knee_adduction_r/speed	/jointset/knee_r/knee_rotation_r/speed	/jointset/ankle_r/ankle_angle_r/speed	/jointset/subtalar_r/subtalar_angle_r/speed	/forceset/tau_hip_flexion_r	/forceset/tau_hip_adduction_r	/forceset/tau_hip_rotation_r	/forceset/tau_knee_flexion_r	/forceset/tau_ankle_angle_r	/forceset/tau_subtalar_angle_r	/forceset/tau_lumbar_extension	lambda_cid13_p0	lambda_cid14_p0	lambda_cid14_p1	lambda_cid14_p2	lambda_cid14_p3	lambda_cid14_p4	lambda_cid14_p5	/jointset/ground_pelvis/pelvis_tilt/accel	/jointset/ground_pelvis/pelvis_tx/accel	/jointset/ground_pelvis/pelvis_ty/accel	/jointset/hip_r/hip_flexion_r/accel	/jointset/hip_r/hip_adduction_r/accel	/jointset/hip_r/hip_rotation_r/accel	/jointset/back/lumbar_extension/accel	/jointset/patellofemoral_r/patellar_flexion_r/accel	/jointset/knee_r/knee_flexion_r/accel	/jointset/knee_r/knee_adduction_r/accel	/jointset/knee_r/knee_rotation_r/accel	/jointset/ankle_r/ankle_angle_r/accel	/jointset/subtalar_r/subtalar_angle_r/accel	gamma_cid13_p0	gamma_cid14_p0	gamma_cid14_p1	gamma_cid14_p2	gamma_cid14_p3	gamma_cid14_p4	gamma_cid14_p5
1.5	-0.2775580524643927	-0.04208166952447644	0.828815600947029	0.9751219365542356	-0.2192000438159143	-0.145943512805992	-0.6509179146628865	0.6879877959131725	0.6879877959132261	0.0145489834205156	0.1745285957506621	0.06060066876061299	0.06501639905580554	1.038725100055977	0.3852114952651524	0.4376222072180261	-2.405424278548874	-0.001367292583928534	-0.2379050657596209	0.7902425460391184	-1.248377442559526	-1.248377442559513	0.2275137974269831	-1.222760229130791e-05	0.07065321491238247	0.02260347917435404	-0.2640951613009027	-0.00743018527919127	0.01523059908439234	-0.1973390059758701	0.09574469321628322	-0.009257021524753089	0.2738163171246182	-21.67214274465385	-12.16329004528178	-3.253963506312686	-2.367298423895347	-9.653841223890444	-636.1970917264118	59.74553253092194	0.1576579866984039	0.8659674917879605	-0.2761580628789319	-1.577497547741464	-0.081046096790291	-0.2412961323625476	2.235778186780438	-1.104694910523566	-1.104694910523547	0.6115706194841244	-0.03571216514845638	0.1947537006076229	-0.0362940976741478	4.152540462787678e-08	-3.521402114836566e-08	-6.85603436315e-07	-3.765735131906772e-07	9.6536886871071e-08	1.619698595998277e-07	-1.343768029638012e-07
1.51	-0.2671636426217082	-0.03818661131734569	0.8331770987075996	0.9509911661876969	-0.2192180192522702	-0.1483363605010833	-0.6429057865740669	0.6754503372518856	0.6754503372518416	0.01685397738587409	0.1745284623504011	0.06131687249334025	0.06524032289776517	1.040009712216106	0.3937565365078139	0.4345749694507156	-2.420390457711443	-0.002228463504111666	-0.2406501117981316	0.8120578798352726	-1.258929910457121	-1.258929910457058	0.2334624062594523	-1.442879887841308e-05	0.07258289505941004	0.02217879410235549	-0.2529973345263754	-0.008172999426850737	0.01504042199754729	-0.1966832695407526	0.0949616908151876	-0.01000765440181139	0.2648986663129452	-22.23303303291905	-12.10663911789038	-3.49553822049015	-2.413888669639527	-9.357809619502959	-630.5847217465105	59.40728822112444	0.09178716176236372	0.8422516123160912	-0.3343271474794068	-1.405277502491156	-0.08889896432548816	-0.2889236919332854	2.135632192142164	-1.002874849887655	-1.002874849880107	0.5829685865705616	0.01747358652617787	0.191402783051408	-0.04609738473185238	4.38428901635976e-08	-3.608830419531416e-08	-7.306485430586325e-07	-3.987239705747124e-07	1.008682603322495e-07	1.732198900519042e-07	-1.48228793780664e-07
1.52	-0.2567608017912141	-0.0342074068634252	0.8375050599877326	0.9267209141491408	-0.219244655672794	-0.1507562216270185	-0.6346792609040619	0.6628128834874948	0.6628128834873824	0.01921774995374456	0.1745282964749417	0.06205223854979764	0.06545989155445017	1.040411297619937	0.4020407446231043	0.4309149111305092	-2.433320612953042	-0.003099489411980872	-0.2433077519301892	0.8331220622757843	-1.268376463175114	-1.268376463175001	0.2392695179496261	-1.872265786842913e-05	0.07448567965848665	0.02173244211959069	-0.2418995077517725	-0.008915813574564002	0.01485024491127769	-0.1960275331056043	0.0941786884140652	-0.01075828727893971	0.2559810155013516	-22.78661043561334	-12.05228243663853	-3.737946310416527	-2.45985274779002	-9.047826864585559	-624.998827390643	59.07202729589703	-0.01894736456130667	0.8138008663136881	-0.398722173458127	-1.170292763547523	-0.08301709432759102	-0.2238149510719662	2.08554791565185	-0.8835118746030769	-0.8835118746030197	0.5832711910250858	-0.03613069762901566	0.1893745910174213	-0.04062747982742727	4.593661692451307e-08	-3.612954471750315e-08	-7.741241912698683e-07	-4.198703793183505e-07	1.034694548789204e-07	1.854609433687149e-07	-1.624098536489148e-07
1.53	-0.246358330699208	-0.03014678274129123	0.8417933949409107	0.9023316151452666	-0.2192799978659071	-0.1532023343523272	-0.6262461209084699	0.6500865115749503	0.6500865115748671	0.02163874680053882	0.1745281540129845	0.06280643297247439	0.06567493569105343	1.039933408550338	0.4100277819986847	0.4266522625790304	-2.4441810343772	-0.003969240106298837	-0.2458937280689119	0.8533572901293687	-1.276702822742382	-1.276702822742286	0.2449056800654502	-1.255768729064397e-05	0.07634322889308966	0.02127265495255008	-0.2307527319378458	-0.009700230619586346	0.01459700770877782	-0.1954139453861219	0.0933536189019861	-0.01151869684070495	0.246926488991076	-23.33103689024172	-12.02169519255612	-3.988729540057863	-2.504519204072067	-8.667289489545071	-619.526228325144	58.732187174159	-0.0846395984669057	0.7827314305302744	-0.4549675605856305	-0.990194221070696	-0.08915899306821604	-0.2727996040373439	1.970213212750911	-0.7779432661995577	-0.7779432662019674	0.5499985104395003	0.01851015298407423	0.1824752269179202	-0.04939952267604393	4.779259998719784e-08	-3.528567755713517e-08	-8.159322897904327e-07	-4.399499863815666e-07	1.042323343289268e-07	1.987549584793059e-07	-1.769405493842654e-07
1.54	-0.2359651244819653	-0.02600797299393053	0.8460361171356554	0.8778444564493192	-0.2193240785531992	-0.1556736689707612	-0.6176150880358316	0.6372827270130675	0.6372827270129705	0.02411534722619267	0.1745279772124962	0.06357890891494387	0.06588523291847888	1.038558322668441	0.4176778696684506	0.4217923594438427	-2.45289255137016	-0.004847188243976693	-0.2483521305582458	0.872700637684508	-1.283858993046075	-1.283858993045996	0.25039023372441	-2.559037339410362e-05	0.07814198361714653	0.02078306028416503	-0.2196059561238071	-0.0104846476646052	0.01434377050630521	-0.1948003576666382	0.0925285493898904	-0.0122791064024743	0.237871962480908	-23.8644225795046	-11.99338810759424	-4.240951672230987	-2.547768512012464	-8.267216358196965	-614.0766813324553	58.3909048623669	-0.1983867270208071	0.7464109251507702	-0.5181730901999417	-0.740511877307901	-0.08465658299961934	-0.1983002211942513	1.9071718559627	-0.6494740218879631	-0.6494740218879973	0.5529494996522866	-0.03997022896515739	0.1776156889082246	-0.04658898009636947	4.989333948879015e-08	-3.460400028854446e-08	-8.605468443258395e-07	-4.616401746923514e-07	1.055710729042912e-07	2.101293244961498e-07	-1.922602864090651e-07
1.55	-0.2255901316299581	-0.02179442743353751	0.8502273193645435	0.8532809380255261	-0.219376936125922	-0.1581691200542075	-0.6087952831537946	0.6244132256692085	0.6244132256692435	0.0266458915764828	0.1745277127949609	0.0643690581430372	0.06609053412205193	1.036289915433289	0.4249663920565418	0.4163538439677261	-2.459443537015982	-0.005726177853487192	-0.2507130765840985	0.8910932869148867	-1.28983811852028	-1.289838118520135	0.2556953664034751	-2.89789984467696e-05	0.07987713294520729	0.02027123262605365	-0.2084452056968157	-0.01133684325893264	0.01403121438636534	-0.1944715679624331	0.09205644554568836	-0.01310389680967787	0.2287698643070383	-24.38485929132527	-11.87423682095587	-4.511136928086276	-2.581405057708753	-7.928358257944516	-608.9171117216333	58.05417209496628	-0.2636215782023309	0.7103670797415981	-0.5707822548430032	-0.5572535785106769	-0.08997658716776592	-0.2512129688694131	1.78025368489129	-0.5416689499587107	-0.5416689499486533	0.5156224542845568	0.0191551877109107	0.1698856748858947	-0.05457847528899383	5.227608097434112e-08	-3.410919398221885e-08	-9.083949242696516e-07	-4.851860327014218e-07	1.075733013414811e-07	2.192919209049809e-07	-2.084891362238822e-07
1.56	-0.2152423336215956	-0.01750993781244209	0.8543613181429653	0.8286629374112324	-0.2194386748822081	-0.1606874248329997	-0.5997965633337876	0.6114900256427213	0.6114900256427682	0.02922875271407257	0.1745273501645429	0.0651762430884361	0.06629049728571933	1.033119353940533	0.4318666818089315	0.4103516693505994	-2.463788989473446	-0.006623424952652091	-0.252922869633495	0.9084836252778868	-1.294598729585356	-1.294598729585145	0.2608535911725601	-4.523294404014593e-05	0.08154912707851139	0.01971545230313024	-0.1972844552696758	-0.01218903885318212	0.01371865826577758	-0.1941427782582468	0.09158434170149533	-0.01392868721677435	0.2196677661332943	-24.89042212457938	-11.75750451230528	-4.783441465255004	-2.61276661778634	-7.564924656216719	-603.7798859905031	57.71124136726159	-0.3788175785418998	0.6687643980104843	-0.6309049184019958	-0.2994052396365856	-0.08830808093051375	-0.1680696259030953	1.706709682486852	-0.4057711400620335	-0.4057711400620292	0.5235679176563116	-0.04254329307309106	0.1649846499569457	-0.05537951305885466	5.267878497232755e-08	-3.312847924193921e-08	-9.325076764590223e-07	-4.981351323500285e-07	1.067573069383844e-07	2.264830658445793e-07	-2.203075045577502e-07
1.57	-0.2049307531240736	-0.01315854390492559	0.8584325323173144	0.8040126858655331	-0.2195092542023807	-0.1632273527991267	-0.5906290226170172	0.5985253047986231	0.5985253047986792	0.0318618986525287	0.1745268344440487	0.06599975939945782	0.06648493669271725	1.029048097048028	0.4383313430662547	0.4038026721640586	-2.465875094756957	-0.007481140626247129	-0.2550686157901159	0.9248456934835182	-1.298136388310309	-1.29813638831006	0.2657069054752765	-4.046224854647212e-05	0.08313703316106374	0.01918108777001732	-0.1864988739438348	-0.01290326934332217	0.01331135947197968	-0.1934174931412469	0.09037612906933108	-0.0146256847369525	0.2107804282182419	-25.37920572670899	-11.89702436318976	-5.034798189070042	-2.659250510552793	-6.958737151852295	-599.0087037026759	57.39385472588587	-0.4435818872886133	0.6232234795173245	-0.6801243358347033	-0.1052812268813443	-0.08298462357137812	-0.2386910356147001	1.574131700222638	-0.296415482511407	-0.2964154825055194	0.4557304747630547	0.02453483868224035	0.1531588860223092	-0.05137100622253443	5.060644211085834e-08	-3.154037895921707e-08	-9.269512689553413e-07	-4.978382840480558e-07	1.024185339849293e-07	2.312098964476368e-07	-2.266127710404318e-07
1.58	-0.194664345624016	-0.008744922086850182	0.8624356110763871	0.7793531596561765	-0.2195881069419005	-0.1657889110118257	-0.5813032259560637	0.5855314769185266	0.5855314769185649	0.03454148119164177	0.1745268759480798	0.06683864783102839	0.06667425123782664	1.024084754448173	0.444312263920714	0.3967245862953483	-2.465643922207369	-0.008278108819730779	-0.2572489189496711	0.9401348141139926	-1.30042013678723	-1.300420136786942	0.2701409113053366	6.621195981401025e-05	0.08462355118834074	0.01869047992550816	-0.1757132926178887	-0.0136174998334524	0.0129040606781913	-0.1926922080242373	0.08916791643715795	-0.01532268225712581	0.2018930903032845	-25.84933991815022	-12.03971592007865	-5.28895289245333	-2.702726531196391	-6.324469077297505	-594.2700461632551	57.06570041853618	-0.5572347200118789	0.5720163174377446	-0.7367226548359465	0.164050326983336	-0.07615858490831591	-0.174981026490108	1.492120167455325	-0.1549890904551896	-0.1549890904551912	0.4397062231251322	-0.02216259049950053	0.1447070389019451	-0.04662817533818493	5.560888030902304e-08	-1.997441579636504e-09	-7.677777428929956e-07	-2.593965287492747e-07	6.707659747824606e-08	2.844400956453671e-07	-1.67484396754945e-07
1.59	-0.1844519084863922	-0.004273898554068057	0.8663653871348503	0.7547071071283633	-0.2196754732072366	-0.1683698485220704	-0.5718300919597747	0.5725210978514885	0.5725210978515071	0.03726628450686063	0.1745270201695243	0.06769168922494027	0.06685774518903539	1.018250759349369	0.4498116825255067	0.3891515527548009	-2.463179516497087	-0.00918329126588089	-0.2589446617599487	0.9543095016138812	-1.301440069351176	-1.301440069350941	0.2747419751048542	-1.955295996669291e-05	0.08597875750961306	0.01802078500879407	-0.1649100321506289	-0.01452856424215842	0.01248279794370406	-0.1927247550678813	0.08905590279808347	-0.01621538862201382	0.1930680246366492	-26.29896458549776	-11.87472692896149	-5.590085097930522	-2.720604118945279	-5.983277855425217	-590.0994341564566	56.74751170326278	-0.6192598548250696	0.5267793197555389	-0.7793597103024245	0.3457142757846563	-0.09589553108137482	-0.1676553283447841	1.352770511289763	-0.04317003198266233	-0.04317003199045845	0.4586237099368813	0.001021393109723064	0.1300359526099374	-0.07522296217209495	7.021280708811894e-08	6.548420328853555e-08	-4.001238416439025e-07	3.022418860451572e-07	-1.034106099353013e-08	4.034962950787213e-07	-1.955322428409181e-08
